<svg xmlns="http://www.w3.org/2000/svg" xmlns:xlink="http://www.w3.org/1999/xlink" version="1.1" x="0px" y="0px" viewBox="0 0 128 160" style="enable-background:new 0 0 128 128;" xml:space="preserve"><ellipse cx="64" cy="23" rx="22" ry="23"/><path d="M98.3397827,52c-5.1992035-4.7108994-11.7127838-8.1166992-18.9852982-9.8031998C75.1894836,45.8168983,69.8358841,48,64,48  c-5.8389168,0-11.1953163-2.1851006-15.3604164-5.8091011C41.3612823,43.8759995,34.8417854,47.2841988,29.6386852,52H98.3397827z"/><path d="M111,124.3066025c-0.0009995-1.0223999-0.0029144-2.505806-0.0039215-4.3066025H17c0,1.794899,0,3.277298,0,4.3066025  C17,126.3467026,18.6660004,128,20.7235851,128h86.5576935C109.3388824,128,111.0019989,126.3467026,111,124.3066025z"/><path d="M21,110h86V62H21V110z M66,107h-4c-0.5527153,0-1-0.4473038-1-1s0.4472847-1,1-1h4c0.552681,0,1,0.4473038,1,1  S66.552681,107,66,107z M66,103h-4c-0.5527153,0-1-0.4473038-1-1s0.4472847-1,1-1h4c0.552681,0,1,0.4473038,1,1  S66.552681,103,66,103z M63,98V78c0-0.5526962,0.4472847-1,1-1c0.552681,0,1,0.4473038,1,1v20c0,0.5526962-0.447319,1-1,1  C63.4472847,99,63,98.5526962,63,98z M94.882782,96.0146027c-2.1230011,1.8486938-5.2548981,2.886795-8.5097809,2.886795  c-0.6992188,0-1.4042206-0.0478973-2.1064148-0.1464996c-1.6279068-0.2266006-3.3877029-0.7763977-5.2509995-1.357399  c-2.7451019-0.8564987-5.5848999-1.7461014-7.9238052-1.5253983c-0.5653992,0.0507965-1.0371017-0.3554993-1.0878983-0.9043045  c-0.0497971-0.5497971,0.3544998-1.0370941,0.9042969-1.0878983c2.7383041-0.2421951,5.7714996,0.6943054,8.7031021,1.6083984  c1.7823029,0.5566025,3.4657974,1.0810013,4.9317169,1.2861023c3.41008,0.4717026,6.8700867-0.3916016,9.0272827-2.2685013  C95.1835861,93.1016006,96.0009995,91.25,96,89c0-0.5518036,0.4472809-1,1-1c0.5517807,0,1,0.4473038,1,1  C98.0009995,91.8134995,96.9237823,94.2393036,94.882782,96.0146027z M96.3583832,81.0634995  c0.5127029-0.169899,1.0673981,0.0887985,1.2490005,0.6006012c0.0634995,0.1776962,0.5811005,1.7871017-0.7685013,3.5957031  c-2.3632965,3.1659927-8.7783966,4.7616959-19.1026001,4.7616959c-2.1025009,0-4.3651962-0.0663986-6.7910004-0.1991959  c-0.5516968-0.0293045-0.9736023-0.5010071-0.9432831-1.052803c0.0292816-0.5517044,0.5174866-1.0028992,1.052681-0.9432983  c17.6963196,0.9667969,22.7158051-1.8993988,24.1278992-3.6934052c0.7735062-0.982399,0.5440063-1.7850952,0.5342026-1.8192978  C95.5604858,81.794899,95.8427811,81.232399,96.3583832,81.0634995z M93.2870865,76.830101  c0.9062958-1.2919998,0.463913-2.427803,0.4589996-2.4384995c-0.2168045-0.5078049,0.0205002-1.0957031,0.5282974-1.3115005  c0.5087967-0.217804,1.094696,0.0195007,1.3115005,0.5282974c0.037117,0.0868988,0.8897018,2.1582031-0.6611023,4.3701019  c-2.3417816,3.3398972-8.6669998,5.0224991-18.8358994,5.0234985c-1.9121017,0-3.9599991-0.0596008-6.1436005-0.1796951  c-0.5516968-0.0293045-0.9736023-0.5010071-0.9432831-1.052803c0.0292816-0.5527039,0.5116806-1,1.052681-0.9432983  C87.1708832,81.7528992,91.9599991,78.7236023,93.2870865,76.830101z M89.557579,69.9971008  c0.8330002-1.3047028,0.2315063-2.5157013,0.2256012-2.5273972c-0.2597961-0.4873047-0.0741806-1.0927048,0.4131012-1.3525009  c0.4883041-0.2608032,1.0937195-0.0742035,1.3525009,0.4130936c0.0478973,0.0908051,1.1631012,2.243103-0.305603,4.5429001  C89.1513824,74.3496017,83.0390854,76,73.0429993,76.0009995c-1.8936157,0-3.9258194-0.0596008-6.0977173-0.1786957  c-0.5516968-0.0293045-0.9736023-0.5010071-0.9432831-1.052803c0.0292816-0.5517044,0.4950867-1.009697,1.052681-0.9432983  C83.9150009,74.7432022,88.3925858,71.8231964,89.557579,69.9971008z M62,66h4c0.552681,0,1,0.4473038,1,1s-0.447319,1-1,1h-4  c-0.5527153,0-1-0.4473038-1-1S61.4472847,66,62,66z M62,70h4c0.552681,0,1,0.4473038,1,1s-0.447319,1-1,1h-4  c-0.5527153,0-1-0.4473038-1-1S61.4472847,70,62,70z M36.4511833,66.5302963  c0.2588158-0.4872971,0.8642006-0.6738968,1.3525009-0.4130936c0.4844017,0.2577972,0.669899,0.857399,0.4179993,1.3436966  c-0.0341988,0.0683975-0.6093979,1.2705002,0.2421989,2.5683975c1.1875,1.8125,5.6865005,4.7139053,22.4813995,3.7969055  c0.5517998-0.0663986,1.0235023,0.3915939,1.0527191,0.9432983c0.0302811,0.551796-0.3916168,1.0234985-0.9433174,1.052803  c-2.1708984,0.1190948-4.2041016,0.1786957-6.097683,0.1786957c-9.9970016,0-16.1084175-1.6513977-18.2002182-4.927803  C35.2880859,68.7733994,36.403286,66.6211014,36.4511833,66.5302963z M32.4140854,73.6083984  c0.2168007-0.5087967,0.8046989-0.7461014,1.3115005-0.5282974c0.5038986,0.214798,0.7411995,0.794899,0.5331993,1.2997971  c-0.0264015,0.0693054-0.4424019,1.2128983,0.4872971,2.4971008C36.1024857,78.75,40.9218826,81.75,57.945282,80.8262024  c0.535202-0.0567017,1.0235023,0.3905945,1.0527191,0.9432983c0.0302811,0.551796-0.3916168,1.0234985-0.9433174,1.052803  c-2.1826019,0.1200943-4.232399,0.1796951-6.1436005,0.1796951c-10.169899,0-16.4940834-1.6836014-18.8358994-5.0234985  C31.5243835,75.7666016,32.3769989,73.6952972,32.4140854,73.6083984z M30.3925838,81.6641006  c0.1844997-0.5195999,0.7588005-0.7939987,1.2772999-0.6054993c0.5137024,0.1826019,0.785202,0.7432022,0.6123009,1.2577972  c-0.017601,0.0634995-0.222599,0.8544998,0.5351982,1.8163986c1.4121017,1.7940063,6.4346161,4.660202,24.1278992,3.6934052  c0.5440025-0.0596008,1.0235023,0.3915939,1.0527191,0.9432983c0.0302811,0.551796-0.3916168,1.0234985-0.9433174,1.052803  c-2.4248009,0.1327972-4.6894989,0.1991959-6.7910004,0.1991959c-10.3261986,0-16.7392998-1.5957031-19.1025982-4.7616959  C29.8114834,83.4512024,30.3290844,81.8417969,30.3925838,81.6641006z M31,88c0.5526848,0,1,0.4481964,1,1  c-0.0009995,2.25,0.8163834,4.1016006,2.4296837,5.5058975c2.1571999,1.8768997,5.6142006,2.7402039,9.0264015,2.2685013  c1.4667969-0.205101,3.1502991-0.7294998,4.9325981-1.2861023c2.9315987-0.914093,5.9648018-1.8505936,8.7031021-1.6083984  c0.5497971,0.0508041,0.9540977,0.5381012,0.9042969,1.0878983c-0.0508003,0.5488052-0.5331993,0.955101-1.0878983,0.9043045  c-2.3320007-0.2157974-5.1796989,0.669899-7.9238014,1.5253983c-1.8633003,0.5810013-3.6231003,1.1307983-5.2519989,1.357399  c-0.7010994,0.0986023-1.4062004,0.1464996-2.1053848,0.1464996c-3.2549133,0-6.3858147-1.0381012-8.5098152-2.886795  C31.0761833,94.2393036,29.9990005,91.8134995,30,89C30,88.4473038,30.448185,88,31,88z"/><path d="M115,114V58c0-2.2001991-1.7998199-4-4-4H17c-2.2002153,0-4,1.7998009-4,4v56c0,2.2002029,1.7997847,4,4,4h94  C113.2001801,118,115,116.2002029,115,114z M109,110c0,1.0996017-0.9004211,2-2,2H21c-1.0996151,0-2-0.9003983-2-2V62  c0-1.1001015,0.9003849-2,2-2h86c1.0995789,0,2,0.8998985,2,2V110z"/><text x="0" y="143" fill="#000000" font-size="5px" font-weight="bold" font-family="'Helvetica Neue', Helvetica, Arial-Unicode, Arial, Sans-serif">Created by priyanka</text><text x="0" y="148" fill="#000000" font-size="5px" font-weight="bold" font-family="'Helvetica Neue', Helvetica, Arial-Unicode, Arial, Sans-serif">from the Noun Project</text></svg>